<svg xmlns="http://www.w3.org/2000/svg" viewBox="0 0 126.42 14.21"><defs><style>.cls-1{fill:#303131;}</style></defs><g id="レイヤー_2" data-name="レイヤー 2"><g id="レイヤー_1-2" data-name="レイヤー 1"><path class="cls-1" d="M4.07,2.83H0V.32H11.11V2.83H7.05V13.89h-3Z"/><path class="cls-1" d="M18.75,0c4.2,0,6.67,3.13,6.67,7.16S23,14.21,18.75,14.21s-6.67-3.13-6.67-7S14.55,0,18.75,0Zm0,11.7c2.68,0,3.69-2.28,3.69-4.54s-1-4.65-3.69-4.65-3.68,2.28-3.68,4.65S16.07,11.7,18.75,11.7Z"/><path class="cls-1" d="M27.46.32h7.31a3.73,3.73,0,0,1,4,3.75,3.35,3.35,0,0,1-2.15,3.4v0c1.47.38,1.88,1.81,2,3.18,0,.85,0,2.45.57,3.21h-3a14.42,14.42,0,0,1-.48-3.25c-.21-1.43-.76-2.05-2.26-2.05h-3v5.3h-3Zm3,6.14h3.27c1.32,0,2-.57,2-1.94s-.73-1.88-2-1.88H30.44Z"/><path class="cls-1" d="M41.17.32h3V13.89h-3Z"/><path class="cls-1" d="M55.82,4.88a2.92,2.92,0,0,0-3-2.37c-2.68,0-3.69,2.28-3.69,4.65s1,4.54,3.69,4.54c1.82,0,2.85-1.25,3.07-3h2.89a5.73,5.73,0,0,1-6,5.55c-4.2,0-6.67-3.13-6.67-7S48.66,0,52.86,0c3,0,5.49,1.75,5.85,4.88Z"/><path class="cls-1" d="M66.94,0c4.19,0,6.66,3.13,6.66,7.16s-2.47,7.05-6.66,7.05-6.67-3.13-6.67-7S62.74,0,66.94,0Zm0,11.7c2.67,0,3.68-2.28,3.68-4.54s-1-4.65-3.68-4.65-3.69,2.28-3.69,4.65S64.26,11.7,66.94,11.7Z"/><path class="cls-1" d="M84.68,4.88a2.92,2.92,0,0,0-3-2.37C79,2.51,78,4.79,78,7.16s1,4.54,3.69,4.54c1.82,0,2.85-1.25,3.08-3h2.88a5.73,5.73,0,0,1-6,5.55c-4.2,0-6.67-3.13-6.67-7S77.52,0,81.72,0c3,0,5.49,1.75,5.85,4.88Z"/><path class="cls-1" d="M89.72.32h3V11.38h6.61v2.51H89.72Z"/><path class="cls-1" d="M112.5,8.76c0,3.66-2.17,5.45-5.8,5.45s-5.77-1.77-5.77-5.45V.32h3V8.76c0,1.48.38,2.94,2.79,2.94,2.13,0,2.81-.93,2.81-2.94V.32h3Z"/><path class="cls-1" d="M115.06.32h6.39c2.58,0,4.33.84,4.33,3.37a3,3,0,0,1-1.84,2.83A3.3,3.3,0,0,1,126.42,10c0,2.76-2.33,3.94-4.78,3.94h-6.58Zm3,5.49h3c1,0,1.82-.47,1.82-1.61,0-1.29-1-1.56-2-1.56h-2.79Zm0,5.76h3.19c1.18,0,2.2-.38,2.2-1.79s-.87-1.93-2.15-1.93h-3.24Z"/></g></g></svg>